<?xml version="1.0"?>
<svg xmlns="http://www.w3.org/2000/svg" xmlns:xlink="http://www.w3.org/1999/xlink" version="1.1" id="Layer_1" x="0px" y="0px" viewBox="0 0 512 512" style="enable-background:new 0 0 512 512;" xml:space="preserve" width="512px" height="512px" class=""><g><path style="fill:#83A3C0" d="M456.348,512H395.13V267.13h94.609c9.22,0,16.696,7.475,16.696,16.696v178.087  C506.435,489.576,484.01,512,456.348,512z" data-original="#B8BFCC" class="active-path" data-old_color="#B8BFCC"/><path style="fill:#7D9CB8" d="M406.261,461.913c0-256.165,0-195.295,0-445.217C406.261,7.473,398.782,0,389.565,0H22.261  C13.044,0,5.565,7.473,5.565,16.696v428.522C5.565,482.044,35.522,512,72.348,512h384C428.685,512,406.261,489.576,406.261,461.913z  " data-original="#E6EEFF" class="" data-old_color="#E6EEFF"/><path style="fill:#FFEACC;" d="M456.348,512h5.565c-0.92,0-1.923-0.198-2.877-0.272C458.128,511.777,457.268,512,456.348,512z" data-original="#FFEACC" class=""/><path style="fill:#7D9CB8" d="M389.565,0H205.913v512h250.435c-27.662,0-50.087-22.424-50.087-50.087  c0-256.165,0-195.295,0-445.217C406.261,7.473,398.782,0,389.565,0z" data-original="#DAE2F2" class="" data-old_color="#DAE2F2"/><g>
	<path style="fill:#EDEEF0" d="M189.217,233.739H89.043c-9.217,0-16.696-7.473-16.696-16.696V83.478   c0-9.223,7.479-16.696,16.696-16.696h100.174c9.217,0,16.696,7.473,16.696,16.696v133.565   C205.913,226.266,198.435,233.739,189.217,233.739z" data-original="#A1A7B3" class="" data-old_color="#A1A7B3"/>
	<path style="fill:#EDEEF0" d="M322.783,311.652H89.043c-9.217,0-16.696-7.473-16.696-16.696s7.479-16.696,16.696-16.696h233.739   c9.217,0,16.696,7.473,16.696,16.696S332,311.652,322.783,311.652z" data-original="#A1A7B3" class="" data-old_color="#A1A7B3"/>
	<path style="fill:#EDEEF0" d="M189.217,378.435H89.043c-9.217,0-16.696-7.473-16.696-16.696s7.479-16.696,16.696-16.696h100.174   c9.217,0,16.696,7.473,16.696,16.696S198.435,378.435,189.217,378.435z" data-original="#A1A7B3" class="" data-old_color="#A1A7B3"/>
	<path style="fill:#EDEEF0" d="M189.217,445.217H89.043c-9.217,0-16.696-7.473-16.696-16.696s7.479-16.696,16.696-16.696h100.174   c9.217,0,16.696,7.473,16.696,16.696S198.435,445.217,189.217,445.217z" data-original="#A1A7B3" class="" data-old_color="#A1A7B3"/>
</g><g>
	<path style="fill:#EDEEF0" d="M322.783,378.435H256c-9.217,0-16.696-7.473-16.696-16.696s7.479-16.696,16.696-16.696h66.783   c9.217,0,16.696,7.473,16.696,16.696S332,378.435,322.783,378.435z" data-original="#979CA7" class="" data-old_color="#979CA7"/>
	<path style="fill:#EDEEF0" d="M322.783,445.217H256c-9.217,0-16.696-7.473-16.696-16.696s7.479-16.696,16.696-16.696h66.783   c9.217,0,16.696,7.473,16.696,16.696S332,445.217,322.783,445.217z" data-original="#979CA7" class="" data-old_color="#979CA7"/>
	<path style="fill:#EDEEF0" d="M322.783,100.174H256c-9.217,0-16.696-7.473-16.696-16.696S246.783,66.783,256,66.783h66.783   c9.217,0,16.696,7.473,16.696,16.696S332,100.174,322.783,100.174z" data-original="#979CA7" class="" data-old_color="#979CA7"/>
	<path style="fill:#EDEEF0" d="M322.783,166.957H256c-9.217,0-16.696-7.473-16.696-16.696s7.479-16.696,16.696-16.696h66.783   c9.217,0,16.696,7.473,16.696,16.696S332,166.957,322.783,166.957z" data-original="#979CA7" class="" data-old_color="#979CA7"/>
	<path style="fill:#EDEEF0" d="M322.783,233.739H256c-9.217,0-16.696-7.473-16.696-16.696s7.479-16.696,16.696-16.696h66.783   c9.217,0,16.696,7.473,16.696,16.696S332,233.739,322.783,233.739z" data-original="#979CA7" class="" data-old_color="#979CA7"/>
	<path style="fill:#EDEEF0" d="M322.783,278.261h-116.87v33.391h116.87c9.217,0,16.696-7.473,16.696-16.696   S332,278.261,322.783,278.261z" data-original="#979CA7" class="" data-old_color="#979CA7"/>
</g></g> </svg>
