<?xml version="1.0"?>
<svg xmlns="http://www.w3.org/2000/svg" id="Capa_1" enable-background="new 0 0 512 512" height="512px" viewBox="0 0 512 512" width="512px" class=""><g><g><g><path d="m194.742 82.5c-107.55 0-194.742 59.136-194.742 132.086 0 45.682 34.196 85.948 86.168 109.671l-11.378 44.479c-2.889 11.295 9.689 20.168 19.316 13.639l57.451-38.959c13.89 2.133 28.34 3.256 43.184 3.256 107.55 0 194.742-59.136 194.742-132.086s-87.191-132.086-194.741-132.086z" fill="#5de1c4" data-original="#5DE1C4" class="active-path" style="fill:#95B1CA" data-old_color="#5de1c4"/></g><g><path d="m317.258 127.405c107.55 0 194.742 59.136 194.742 132.086 0 45.682-34.196 85.948-86.168 109.671l11.378 44.479c2.889 11.295-9.689 20.168-19.316 13.639l-57.451-38.959c-13.89 2.133-28.34 3.256-43.184 3.256-107.55 0-194.742-59.136-194.742-132.086s87.191-132.086 194.741-132.086z" fill="#0ed2b3" data-original="#0ED2B3" class="" style="fill:#7D9CB8" data-old_color="#0ed2b3"/></g><g><path d="m212.217 341.464c-17.689 0-35.071-1.342-52.061-3.919 35.44 32.76 92.605 54.032 157.102 54.032 14.844 0 29.294-1.123 43.185-3.256l57.451 38.959c9.628 6.53 22.205-2.343 19.316-13.639l-11.378-44.479c51.972-23.723 86.168-63.989 86.168-109.671 0-21.164-7.351-41.161-20.396-58.893-64.527 85.682-165.672 140.866-279.387 140.866z" fill="#0ab69f" data-original="#0AB69F" class="" style="fill:#7D9CB8" data-old_color="#0ab69f"/></g></g></g> </svg>
